HIERARCHY
ROOT Hips
{
 OFFSET 0.000000 0.000000 0.000000
 CHANNELS 6 Xposition Yposition Zposition Yrotation Xrotation Zrotation
 JOINT Chest
 {
  OFFSET 0.000000 9.581000 -0.001100
  CHANNELS 3 Yrotation Xrotation Zrotation
  JOINT Chest2
  {
   OFFSET 0.000000 9.561100 0.002200
   CHANNELS 3 Yrotation Xrotation Zrotation
   JOINT Chest3
   {
    OFFSET 0.000000 9.521100 0.000000
    CHANNELS 3 Yrotation Xrotation Zrotation
    JOINT Chest4
    {
     OFFSET 0.000000 9.511400 0.000000
     CHANNELS 3 Yrotation Xrotation Zrotation
     JOINT Neck
     {
      OFFSET 0.000000 14.375100 0.000000
      CHANNELS 3 Yrotation Xrotation Zrotation
      JOINT Head
      {
       OFFSET 0.000000 8.901200 0.004600
       CHANNELS 3 Yrotation Xrotation Zrotation
       End Site
       {
        OFFSET 0.000000 16.962200 0.002400
       }
      }
     }
     JOINT RightCollar
     {
      OFFSET -2.920100 9.518800 0.000000
      CHANNELS 3 Yrotation Xrotation Zrotation
      JOINT RightShoulder
      {
       OFFSET -13.664500 0.000000 0.000000
       CHANNELS 3 Yrotation Xrotation Zrotation
       JOINT RightElbow
       {
        OFFSET 0.000000 -29.999200 0.000000
        CHANNELS 3 Yrotation Xrotation Zrotation
        JOINT RightWrist
        {
         OFFSET 0.000000 -24.253600 0.000000
         CHANNELS 3 Yrotation Xrotation Zrotation
         End Site
         {
          OFFSET 0.000000 -17.918900 0.000000
         }
        }
       }
      }
     }
     JOINT LeftCollar
     {
      OFFSET 2.920100 9.518800 0.000000
      CHANNELS 3 Yrotation Xrotation Zrotation
      JOINT LeftShoulder
      {
       OFFSET 13.664500 0.000000 0.000000
       CHANNELS 3 Yrotation Xrotation Zrotation
       JOINT LeftElbow
       {
        OFFSET 0.000000 -29.999200 0.000000
        CHANNELS 3 Yrotation Xrotation Zrotation
        JOINT LeftWrist
        {
         OFFSET 0.000000 -24.253600 0.000000
         CHANNELS 3 Yrotation Xrotation Zrotation
         End Site
         {
          OFFSET 0.000000 -17.918900 0.000000
         }
        }
       }
      }
     }
    }
   }
  }
 }
 JOINT RightHip
 {
  OFFSET -7.797300 0.005300 0.000500
  CHANNELS 3 Yrotation Xrotation Zrotation
  JOINT RightKnee
  {
   OFFSET 0.000000 -40.663400 -0.000500
   CHANNELS 3 Yrotation Xrotation Zrotation
   JOINT RightAnkle
   {
    OFFSET 0.000000 -39.523700 -0.000900
    CHANNELS 3 Yrotation Xrotation Zrotation
    JOINT RightToe
    {
     OFFSET 0.000000 -6.418000 14.485300
     CHANNELS 3 Yrotation Xrotation Zrotation
     End Site
     {
      OFFSET 0.000000 -1.465200 6.326400
     }
    }
   }
  }
 }
 JOINT LeftHip
 {
  OFFSET 7.797300 0.005300 0.000500
  CHANNELS 3 Yrotation Xrotation Zrotation
  JOINT LeftKnee
  {
   OFFSET 0.000000 -40.663400 -0.000500
   CHANNELS 3 Yrotation Xrotation Zrotation
   JOINT LeftAnkle
   {
    OFFSET 0.000000 -39.523700 -0.000900
    CHANNELS 3 Yrotation Xrotation Zrotation
    JOINT LeftToe
    {
     OFFSET 0.000000 -6.418000 14.485300
     CHANNELS 3 Yrotation Xrotation Zrotation
     End Site
     {
      OFFSET 0.000000 -1.465200 6.326400
     }
    }
   }
  }
 }
}
MOTION
Frames: 16
Frame Time: 0.008333
0.000000 86.422400 0.000000 0.000000 -5.767877 0.000000 0.000000 11.653817 0.000000 0.000000 -5.885947 0.000000 0.000000 -0.000000 0.000000 0.000000 -0.000000 0.000000 0.000000 12.528835 0.000000 0.000000 0.711642 0.000000 0.000000 -0.000000 0.000000 0.000000 0.000000 -90.000000 0.000000 -2.309062 0.000000 0.000000 2.309062 0.000000 0.000000 -0.000000 0.000000 0.000000 -0.000000 90.000000 0.000000 -2.309062 0.000000 0.000000 2.309062 0.000000 0.000000 8.520406 0.000000 0.000000 1.905762 0.000000 -0.000000 -4.658285 0.000000 0.000000 -0.000000 0.000000 0.000000 8.520406 0.000000 0.000000 1.905762 0.000000 -0.000000 -4.658285 0.000000 0.000000 -0.000000 0.000000
-23.308365 126.354108 57.089941 -174.284847 -26.245187 -1.075872 -1.994858 22.790049 0.646521 -0.296737 3.266124 0.142049 -0.476687 5.284903 0.221485 -1.681824 19.208091 0.607998 -5.296781 14.483206 -0.249407 -5.596636 -10.417971 0.954530 -6.476714 -6.145204 -8.526675 -32.064799 -4.839990 -16.055980 -177.168200 -44.194653 -174.307664 -8.133016 -12.773337 -32.010758 -5.049263 -7.219808 5.920712 35.899659 -16.935260 14.196862 166.549536 -44.604793 -167.068150 -20.627840 -17.412843 40.712016 -11.462337 -61.834741 5.270755 -35.280941 70.359786 -34.719916 25.054537 38.434339 12.021013 0.006960 -0.020448 0.003083 -10.569680 -50.552162 -5.691585 15.494293 70.292570 5.704619 0.082953 8.609714 6.803252 0.005978 0.000458 0.002649
-23.311012 126.349031 57.088009 -174.305466 -26.140616 -1.080631 -1.912881 22.905133 0.703602 -0.289154 3.302292 0.150884 -0.463845 5.340133 0.235817 -1.617476 19.294490 0.663305 -5.340140 14.273097 -0.276032 -5.639863 -10.638402 0.936930 -6.580206 -5.761119 -8.398635 -32.367326 -4.696597 -16.070911 -178.748443 -42.852249 -173.265826 -7.676427 -13.848358 -32.080559 -5.082118 -6.970598 5.997144 36.833252 -16.938001 13.956297 169.095764 -43.094655 -168.714542 -20.840983 -18.055357 41.168294 -11.605128 -61.911532 5.431717 -35.550843 70.256738 -34.983498 24.994295 38.469703 11.963907 0.005748 -0.040842 0.002546 -10.627782 -50.670372 -5.637035 15.382772 70.330888 5.605463 0.137578 8.587159 6.789616 0.010577 0.005045 0.004687
-23.315527 126.344178 57.083835 -174.307852 -26.032802 -1.087141 -1.831451 23.024736 0.750879 -0.281117 3.339285 0.158782 -0.450272 5.396677 0.248767 -1.551775 19.382202 0.712978 -5.379457 14.092265 -0.274847 -5.685460 -10.827646 0.948088 -6.716983 -5.386732 -8.236365 -32.624240 -4.547351 -15.979470 179.760044 -41.767790 -172.241242 -7.282761 -14.685800 -32.164684 -5.087084 -6.710704 6.046978 37.735639 -16.987956 13.697808 171.595546 -41.792529 -170.291449 -21.041020 -18.794706 41.729470 -11.690138 -62.005472 5.523313 -35.827115 70.176755 -35.229990 24.928641 38.487913 11.922039 -0.003452 -0.057748 -0.001528 -10.835325 -50.803115 -5.503506 15.383190 70.362939 5.560600 0.187989 8.571046 6.760481 0.008842 0.006837 0.003918
-23.318606 126.340032 57.076853 -174.293394 -25.930516 -1.112002 -1.742613 23.146413 0.804811 -0.271624 3.376663 0.165408 -0.434389 5.453717 0.259626 -1.479249 19.470289 0.755455 -5.420734 13.938754 -0.244679 -5.740247 -10.987671 0.990737 -6.885251 -5.032691 -8.033907 -32.808682 -4.368563 -15.793381 178.534749 -40.985628 -171.345117 -6.996648 -15.238092 -32.235034 -5.092760 -6.445474 6.064076 38.545256 -17.043022 13.422704 173.792231 -40.767870 -171.657801 -21.312517 -19.562348 42.406627 -11.889364 -62.068775 5.710574 -36.045557 70.086430 -35.456962 24.887354 38.480472 11.876016 -0.003194 -0.061270 -0.001413 -11.045654 -50.926178 -5.360092 15.452686 70.398679 5.580522 0.195977 8.551600 6.745063 0.004457 0.006024 0.001975
-23.317356 126.337924 57.064660 -174.265967 -25.855187 -1.169125 -1.640452 23.275969 0.881252 -0.260056 3.410949 0.170257 -0.415320 5.505968 0.267494 -1.397889 19.551089 0.788748 -5.459088 13.824352 -0.196327 -5.796002 -11.106331 1.052118 -7.072703 -4.678712 -7.788405 -32.906707 -4.159439 -15.538590 177.708270 -40.532131 -170.662850 -6.846922 -15.488799 -32.205147 -5.134793 -6.165611 6.041424 39.192563 -17.057962 13.153900 175.569700 -40.076818 -172.762867 -21.678088 -20.273127 43.099665 -12.238287 -62.074421 6.039714 -36.214325 69.982783 -35.684550 24.857832 38.421584 11.827955 0.003039 -0.030797 0.001346 -11.271394 -51.016812 -5.209191 15.310684 70.452783 5.439856 0.269951 8.518298 6.705008 0.005005 0.006251 0.002218
-23.320836 126.334347 57.055204 -174.270188 -25.766233 -1.177744 -1.518659 23.362303 0.913854 -0.246330 3.439828 0.173048 -0.392915 5.550020 0.272166 -1.307835 19.619651 0.812441 -5.491142 13.749802 -0.135355 -5.847518 -11.183106 1.125455 -7.261088 -4.305829 -7.498108 -32.897648 -3.937630 -15.243938 177.270610 -40.444251 -170.211722 -6.858444 -15.529009 -31.989153 -5.227900 -5.856856 5.979695 39.589747 -17.015167 12.918462 176.962780 -39.774207 -173.632755 -22.094791 -20.901356 43.683862 -12.442046 -62.113604 6.249197 -36.273798 69.920746 -35.795083 24.806735 38.401756 11.818499 0.001492 -0.053606 0.000661 -11.432683 -51.135063 -5.113043 15.183037 70.513477 5.312772 0.320312 8.490225 6.675198 0.006427 0.008380 0.002848
-23.323172 126.332834 57.040771 -174.256582 -25.713429 -1.197212 -1.413820 23.459273 0.940552 -0.230684 3.463123 0.173808 -0.367441 5.585548 0.273796 -1.209980 19.675537 0.826878 -5.514070 13.697764 -0.060625 -5.891986 -11.236322 1.211393 -7.436697 -3.905607 -7.165234 -32.755089 -3.727050 -14.931474 177.091668 -40.743500 -169.944113 -7.028163 -15.477885 -31.612834 -5.362846 -5.516827 5.887321 39.666101 -16.925024 12.734079 178.051466 -39.913893 -174.307873 -22.520193 -21.474394 44.078991 -12.594109 -62.132646 6.390074 -36.608611 69.857201 -36.122384 24.798488 38.310891 11.748424 0.009294 -0.024446 0.004116 -11.604556 -51.210513 -5.019573 15.104054 70.574701 5.231637 0.360832 8.462830 6.641278 0.004400 0.006361 0.001950
-23.328600 126.329900 57.028485 -174.273709 -25.653536 -1.176357 -1.300104 23.530819 0.931302 -0.213614 3.482706 0.172941 -0.339678 5.615466 0.272845 -1.106453 19.723008 0.833519 -5.525412 13.648209 0.029102 -5.927205 -11.287192 1.310751 -7.598751 -3.484702 -6.800531 -32.470740 -3.554828 -14.612180 177.030732 -41.418203 -169.790934 -7.301412 -15.383829 -31.215350 -5.516560 -5.156494 5.779742 39.411738 -16.813436 12.598703 178.842792 -40.493967 -174.784674 -22.950756 -22.038768 44.247342 -12.609892 -62.181084 6.418685 -36.972110 69.822644 -36.448284 24.747915 38.238426 11.660056 0.027470 -0.032642 0.012166 -11.651390 -51.294437 -5.010389 14.947446 70.632353 5.097901 0.397661 8.439449 6.620752 0.008746 0.008625 0.003875
-23.327680 126.326019 57.016493 -174.303472 -25.591012 -1.180901 -1.171898 23.596048 0.951646 -0.195843 3.501002 0.171336 -0.310895 5.643418 0.270671 -1.000517 19.767330 0.836454 -5.524784 13.593991 0.129360 -5.951757 -11.343258 1.418555 -7.751700 -3.066078 -6.424420 -32.070095 -3.454688 -14.301002 177.030819 -42.426650 -169.710819 -7.584864 -15.246983 -30.933607 -5.655210 -4.788020 5.679006 38.888202 -16.705845 12.489094 179.278536 -41.429814 -175.028494 -23.382737 -22.471736 44.150566 -12.770131 -62.201101 6.605599 -37.099233 69.787660 -36.603337 24.669336 38.146139 11.626212 0.010890 -0.017641 0.004824 -11.809210 -51.384759 -4.902088 14.891908 70.704518 5.039214 0.450434 8.404830 6.578602 0.004651 0.004912 0.002061
-23.327009 126.320609 57.006105 -174.349647 -25.518268 -1.170609 -1.046950 23.657534 0.962563 -0.178484 3.519482 0.170001 -0.282847 5.671514 0.268904 -0.897319 19.811385 0.840542 -5.506088 13.531947 0.224509 -5.954988 -11.408115 1.516594 -7.889913 -2.671273 -6.061998 -31.615898 -3.454287 -14.015025 177.156172 -43.682708 -169.718132 -7.791867 -15.028046 -30.834649 -5.754086 -4.421486 5.597695 38.207234 -16.614716 12.385433 179.333083 -42.580712 -175.029142 -23.761433 -22.284661 43.759094 -12.974552 -62.216599 6.833336 -37.006003 69.754155 -36.588872 24.608313 38.103357 11.622582 -0.005239 -0.014853 -0.002321 -11.883949 -51.480016 -4.836345 14.766090 70.774140 4.930190 0.496946 8.368429 6.552804 0.005318 0.004792 0.002357
-23.325252 126.314336 56.995887 -174.394879 -25.440601 -1.163576 -0.939403 23.727044 0.978014 -0.162812 3.538382 0.169457 -0.257494 5.700186 0.268386 -0.803650 19.855490 0.847856 -5.460299 13.443745 0.300729 -5.923682 -11.501558 1.588001 -7.996229 -2.308718 -5.728095 -31.170485 -3.548865 -13.752622 177.497049 -45.059341 -169.846934 -7.882817 -14.665853 -30.931491 -5.805725 -4.060199 5.529358 37.469459 -16.547265 12.287012 179.030542 -43.855505 -174.805979 -23.881985 -21.401228 43.087414 -13.059325 -62.270744 6.951821 -37.160907 69.741710 -36.737843 24.600469 38.049245 11.575380 0.006035 -0.004440 0.002674 -12.015820 -51.585813 -4.730525 14.710399 70.846595 4.864942 0.541594 8.330570 6.525366 0.003636 0.002968 0.001611
-23.321437 126.307093 56.986362 -174.438427 -25.351762 -1.167266 -0.845875 23.797668 1.006807 -0.149563 3.557270 0.169705 -0.236017 5.728917 0.269087 -0.724073 19.898771 0.857591 -5.381794 13.309023 0.359419 -5.852216 -11.645072 1.632865 -8.054287 -1.980873 -5.415756 -30.748535 -3.696318 -13.512195 178.033062 -46.437261 -170.108258 -7.893921 -14.170194 -31.192570 -5.824218 -3.709634 5.453458 36.723698 -16.500945 12.214087 178.307344 -45.275984 -174.321151 -23.651933 -20.587851 42.263871 -13.238242 -62.317971 7.148913 -37.166214 69.733091 -36.773876 24.603525 38.011345 11.552676 0.020737 0.013089 0.009190 -12.160934 -51.697822 -4.601203 14.662637 70.918297 4.801999 0.600297 8.285072 6.490810 0.003236 0.002006 0.001434
-23.317042 126.300054 56.975741 -174.468036 -25.263291 -1.180249 -0.775878 23.874818 1.042756 -0.139113 3.575869 0.170574 -0.219081 5.757217 0.270731 -0.660787 19.940698 0.868612 -5.274678 13.135807 0.405131 -5.746350 -11.829739 1.657017 -8.052327 -1.687492 -5.107189 -30.330456 -3.845160 -13.314316 178.656034 -47.734055 -170.491828 -7.908749 -13.651327 -31.554802 -5.842662 -3.386045 5.334612 35.982859 -16.464043 12.202124 177.068041 -46.789457 -173.489900 -23.270946 -20.257129 41.479355 -13.427799 -62.366955 7.333550 -37.165188 69.716164 -36.792260 24.552947 37.993514 11.511548 0.055589 0.042399 0.024646 -12.290565 -51.803067 -4.479606 14.599993 70.987464 4.730247 0.645322 8.237829 6.465742 0.004561 0.003605 0.002021
-23.317624 126.292444 56.966673 -174.495645 -25.161560 -1.163120 -0.726801 23.939115 1.050480 -0.131264 3.593774 0.172149 -0.206317 5.784355 0.273442 -0.612125 19.980500 0.881709 -5.157589 12.950547 0.437038 -5.626473 -12.027012 1.664009 -7.996139 -1.426368 -4.791638 -29.898483 -3.956517 -13.178413 179.253584 -48.895817 -170.960559 -8.000493 -13.234204 -31.938205 -5.886614 -3.100294 5.147434 35.239820 -16.429865 12.266864 175.493395 -48.227836 -172.388529 -22.844151 -20.159338 40.827928 -13.593968 -62.436600 7.430202 -36.906690 69.742814 -36.583414 24.561634 37.996935 11.617918 0.008328 0.058361 0.003693 -12.383386 -51.920441 -4.400536 14.554492 71.044766 4.674895 0.658437 8.198855 6.456914 0.005446 0.004641 0.002413
-23.318085 126.283842 56.960515 -174.532548 -25.036196 -1.140287 -0.667770 23.977629 1.063832 -0.125060 3.610759 0.174435 -0.196068 5.810101 0.277161 -0.572393 20.017845 0.897415 -5.048194 12.767326 0.455934 -5.512276 -12.221577 1.658896 -7.910270 -1.197066 -4.473822 -29.448821 -4.005438 -13.098318 179.742690 -49.893445 -171.453515 -8.196965 -13.007898 -32.238625 -5.958491 -2.852097 4.910803 34.494072 -16.390132 12.379625 173.949263 -49.504907 -171.255879 -22.348994 -20.141840 40.361433 -13.665243 -62.558504 7.453745 -36.793811 69.754514 -36.465402 24.583000 38.076356 11.713577 -0.008710 0.032683 -0.003861 -12.467199 -52.055591 -4.316639 14.525083 71.092931 4.639878 0.664642 8.160927 6.445207 0.005391 0.004611 0.002389
